<svg xmlns="http://www.w3.org/2000/svg" viewBox="0 0 64 64" fill="none">
  <!-- Background Circle for Favicon visibility -->
  <circle cx="32" cy="32" r="30" fill="#2D3748"/>
  
  <!-- Receipt Paper (White on Dark) -->
  <path d="M16 12H48V48L44 52L40 48L36 52L32 48L28 52L24 48L20 52L16 48V12Z" fill="#FDFBF7"/>
  
  <!-- Lines -->
  <line x1="22" y1="20" x2="34" y2="20" stroke="#A8A29E" stroke-width="2" stroke-linecap="round"/>
  <line x1="22" y1="26" x2="42" y2="26" stroke="#A8A29E" stroke-width="2" stroke-linecap="round"/>
  
  <!-- Spoon Accent -->
  <path d="M42 44C44 44 46 45 46 47C46 49 44 50 42 50C40 50 38 49 38 47C38 45 40 44 42 44Z" fill="#D97706"/>
  <line x1="36" y1="54" x2="42" y2="44" stroke="#D97706" stroke-width="2" stroke-linecap="round"/>
</svg>